# xmcd
#
# Track frame offsets: 
#        150
#        23716
#        41316
#        57850
#        75861
#        99177
#        114875
#        128520
#        148438
#        163238
#        181418
#
# Disc length: 2682 seconds
#
# Revision: 4
# Processed by: cddbd v1.5.2PL0 Copyright (c) Steve Scherf et al.
# Submitted via: ExactAudioCopy v1.3
#
DISCID=7f0a780b
DTITLE=Jim Čert - Světlu Vstříc
DYEAR=1992
DGENRE=Folk
TTITLE0=Hakeldama
TTITLE1=Osamělý Poutník
TTITLE2=Světla A Stíny
TTITLE3=Lothlórien
TTITLE4=Balada O Prasvětle
TTITLE5=Člověk Je Dutina
TTITLE6=Marihuana
TTITLE7=Já Šel Jsem Cestou Tesklivou
TTITLE8=Pocta Gandalfovi
TTITLE9=Křišťálová Studánka
TTITLE10=Havran
EXTD=
EXTT0=
EXTT1=
EXTT2=
EXTT3=
EXTT4=
EXTT5=
EXTT6=
EXTT7=
EXTT8=
EXTT9=
EXTT10=
PLAYORDER=
